<svg xmlns="http://www.w3.org/2000/svg" width="800" height="398" viewBox="0 0 800 398" font-family="Segoe UI, Helvetica, Arial, sans-serif" font-size="12"><rect width="100%" height="100%" fill="#ffffff"/><text x="16" y="24" font-size="15" font-weight="600" fill="#0f172a">What the forest learned to look at</text><text x="230" y="44" fill="#475569">Share of all Isolation Forest splits that use the feature</text><text x="222" y="69" text-anchor="end" fill="#0f172a">data_volume_ratio_log</text><rect x="230" y="58" width="300.0" height="16" rx="3" fill="#0891b2"/><text x="536.0" y="70" fill="#475569">17.2%  (normal ~ 0.01 ± 0.46)</text><text x="222" y="95" text-anchor="end" fill="#0f172a">sensitive_ratio_log</text><rect x="230" y="84" width="299.8" height="16" rx="3" fill="#0891b2"/><text x="535.8260869565217" y="96" fill="#475569">17.2%  (normal ~ -0.16 ± 0.52)</text><text x="222" y="121" text-anchor="end" fill="#0f172a">api_ratio_log</text><rect x="230" y="110" width="288.9" height="16" rx="3" fill="#0891b2"/><text x="524.8695652173913" y="122" fill="#475569">16.6%  (normal ~ 0.00 ± 0.33)</text><text x="222" y="147" text-anchor="end" fill="#0f172a">download_ratio_log</text><rect x="230" y="136" width="285.4" height="16" rx="3" fill="#0891b2"/><text x="521.391304347826" y="148" fill="#475569">16.4%  (normal ~ 0.02 ± 0.40)</text><text x="222" y="173" text-anchor="end" fill="#0f172a">hours_outside_usual_window</text><rect x="230" y="162" width="166.1" height="16" rx="3" fill="#0891b2"/><text x="402.0869565217391" y="174" fill="#475569">9.6%  (normal ~ 0.00 ± 0.64)</text><text x="222" y="199" text-anchor="end" fill="#0f172a">travel_speed_log</text><rect x="230" y="188" width="149.9" height="16" rx="3" fill="#0891b2"/><text x="385.9130434782609" y="200" fill="#475569">8.6%  (normal ~ 0.00 ± 1.03)</text><text x="222" y="225" text-anchor="end" fill="#0f172a">failed_logins</text><rect x="230" y="214" width="89.2" height="16" rx="3" fill="#0891b2"/><text x="325.21739130434787" y="226" fill="#475569">5.1%  (normal ~ 0.00 ± 0.36)</text><text x="222" y="251" text-anchor="end" fill="#0f172a">new_city</text><rect x="230" y="240" width="77.6" height="16" rx="3" fill="#0891b2"/><text x="313.5652173913044" y="252" fill="#475569">4.5%  (normal ~ 0.00 ± 0.25)</text><text x="222" y="277" text-anchor="end" fill="#0f172a">unusual_weekend_login</text><rect x="230" y="266" width="44.3" height="16" rx="3" fill="#0891b2"/><text x="280.3478260869565" y="278" fill="#475569">2.5%  (normal ~ 0.00 ± 0.25)</text><text x="222" y="303" text-anchor="end" fill="#0f172a">unfamiliar_admin_actions</text><rect x="230" y="292" width="38.1" height="16" rx="3" fill="#0891b2"/><text x="274.0869565217391" y="304" fill="#475569">2.2%  (normal ~ 0.00 ± 0.25)</text><text x="222" y="329" text-anchor="end" fill="#0f172a">new_sensitive_systems</text><rect x="230" y="318" width="0.0" height="16" rx="3" fill="#0891b2"/><text x="236.0" y="330" fill="#475569">0.0%  (normal ~ 0.00 ± 0.25)</text><text x="222" y="355" text-anchor="end" fill="#0f172a">new_device</text><rect x="230" y="344" width="0.0" height="16" rx="3" fill="#0891b2"/><text x="236.0" y="356" fill="#475569">0.0%  (normal ~ 0.00 ± 0.25)</text><text x="222" y="381" text-anchor="end" fill="#0f172a">new_country</text><rect x="230" y="370" width="0.0" height="16" rx="3" fill="#0891b2"/><text x="236.0" y="382" fill="#475569">0.0%  (normal ~ 0.00 ± 0.25)</text></svg>
